<svg width="26" height="26" viewBox="0 0 26 26" fill="none" xmlns="http://www.w3.org/2000/svg">
<path d="M12.9999 14.4083C12.859 14.4083 12.7182 14.3758 12.5882 14.3L3.02238 8.76419C2.63238 8.53669 2.50236 8.03833 2.72986 7.64833C2.95736 7.25833 3.44486 7.1283 3.84569 7.3558L12.9999 12.6533L22.0999 7.38834C22.4899 7.16084 22.9882 7.30169 23.2157 7.68086C23.4432 8.07086 23.3024 8.56916 22.9232 8.79666L13.4224 14.3C13.2816 14.365 13.1407 14.4083 12.9999 14.4083Z" fill="#767387"/>
<path d="M13 24.2234C12.5558 24.2234 12.1875 23.8551 12.1875 23.4109V13.5851C12.1875 13.1409 12.5558 12.7726 13 12.7726C13.4442 12.7726 13.8125 13.1409 13.8125 13.5851V23.4109C13.8125 23.8551 13.4442 24.2234 13 24.2234Z" fill="#767387"/>
<path d="M13.0002 24.6458C12.0468 24.6458 11.1043 24.44 10.3568 24.0283L4.57184 20.8108C3.00101 19.9442 1.77686 17.8533 1.77686 16.055V9.93413C1.77686 8.1358 3.00101 6.05585 4.57184 5.17835L10.3568 1.97166C11.841 1.14832 14.1593 1.14832 15.6435 1.97166L21.4285 5.18912C22.9993 6.05579 24.2235 8.14664 24.2235 9.94497V16.0658C24.2235 17.8642 22.9993 19.9441 21.4285 20.8216L15.6435 24.0283C14.896 24.44 13.9535 24.6458 13.0002 24.6458ZM13.0002 2.97915C12.3177 2.97915 11.646 3.11999 11.1477 3.39082L5.36269 6.60829C4.32269 7.19329 3.40186 8.74247 3.40186 9.94497V16.0658C3.40186 17.2575 4.32269 18.8175 5.36269 19.4025L11.1477 22.62C12.1335 23.1725 13.8668 23.1725 14.8527 22.62L20.6377 19.4025C21.6777 18.8175 22.5985 17.2683 22.5985 16.0658V9.94497C22.5985 8.75331 21.6777 7.19329 20.6377 6.60829L14.8527 3.39082C14.3543 3.11999 13.6827 2.97915 13.0002 2.97915Z" fill="#767387"/>
<path d="M18.4169 15.1559C17.9727 15.1559 17.6044 14.7875 17.6044 14.3434V10.8551L7.72441 5.15673C7.33441 4.92923 7.20439 4.43087 7.43189 4.05171C7.65939 3.66171 8.14691 3.53169 8.53691 3.75919L18.8177 9.6959C19.0669 9.83673 19.2294 10.1075 19.2294 10.4V14.3651C19.2294 14.7876 18.8611 15.1559 18.4169 15.1559Z" fill="#767387"/>
</svg>
